<?xml version="1.0" encoding="utf-8"?>
<!-- Generator: Adobe Illustrator 24.0.3, SVG Export Plug-In . SVG Version: 6.00 Build 0)  -->
<svg version="1.1" id="Layer_1" xmlns="http://www.w3.org/2000/svg" xmlns:xlink="http://www.w3.org/1999/xlink" x="0px" y="0px"
	 viewBox="0 0 242.8 99.1" style="enable-background:new 0 0 242.8 99.1;" xml:space="preserve">
<g>
	<g>
		<path d="M56.3,24.2c-1.3,0-2.4,1.1-2.4,2.4c0,0.2,0,0.4,0.1,0.6L40.7,35l-3.4-5c0.4-0.4,0.6-1,0.6-1.7c0-1.4-1.1-2.5-2.5-2.5
			s-2.5,1.1-2.5,2.5c0,0.6,0.2,1.2,0.6,1.7l-3.4,5l-12.9-7.5c0.1-0.3,0.2-0.5,0.2-0.8c0-1.3-1.1-2.4-2.4-2.4s-2.4,1.1-2.4,2.4
			s1,2.4,2.3,2.4l7.1,15c-0.5,0.4-0.8,1.1-0.8,1.8c0,1.3,1.1,2.4,2.4,2.4s2.4-1.1,2.4-2.4c0-0.2,0-0.4-0.1-0.6l9.5-5.6l9.5,5.6
			c-0.1,0.2-0.1,0.4-0.1,0.6c0,1.3,1.1,2.4,2.4,2.4s2.4-1.1,2.4-2.4c0-0.7-0.3-1.4-0.8-1.8l7.1-15c0.1,0,0.3,0,0.4,0
			c1.3,0,2.4-1.1,2.4-2.4C58.6,25.2,57.6,24.2,56.3,24.2z M35.3,27c0.7,0,1.2,0.6,1.2,1.2c0,0.2,0,0.4-0.1,0.5
			c-0.2,0.4-0.6,0.7-1.1,0.7c0,0,0,0-0.1,0c0,0,0,0-0.1,0c-0.5,0-0.9-0.3-1.1-0.7c-0.1-0.2-0.1-0.3-0.1-0.5
			C34.1,27.6,34.7,27,35.3,27z M16,26.7c0,0.3-0.2,0.5-0.4,0.7c-0.2,0.1-0.3,0.2-0.6,0.2h-0.1c-0.4,0-0.7-0.2-0.9-0.5
			c-0.1-0.1-0.1-0.2-0.2-0.4l0,0l0,0c0-0.1,0-0.2,0-0.3c0-0.1,0-0.2,0-0.3c0.1-0.5,0.5-0.8,1.1-0.8s1.1,0.5,1.1,1.1
			C16,26.6,16,26.6,16,26.7z M24.6,45.8c-0.1,0.6-0.5,1-1.1,1s-1.1-0.5-1.1-1.1c0-0.2,0.1-0.4,0.1-0.5c0.2-0.3,0.5-0.6,0.9-0.6l0,0
			c0.1,0,0.1,0,0.2,0s0.2,0,0.2,0.1c0.3,0.1,0.5,0.4,0.6,0.6C24.4,45.4,24.5,45.5,24.6,45.8C24.6,45.7,24.6,45.8,24.6,45.8z
			 M24.3,43.4c-0.2-0.1-0.5-0.1-0.8-0.1c-0.1,0-0.3,0-0.4,0l-7-14.8c0.1-0.1,0.2-0.1,0.3-0.2l12.9,7.6L24.3,43.4z M25.6,43.7
			l4.8-7.1l3.6,2.1L25.6,43.7z M31.2,35.6l3.3-4.9c0.3,0.1,0.5,0.1,0.8,0.1s0.6-0.1,0.8-0.1l3.4,4.9L35.3,38L31.2,35.6z M36.6,38.8
			l3.6-2.1l4.8,7.1L36.6,38.8z M47.2,46.8c-0.6,0-1-0.4-1.1-1v-0.1c0-0.1,0-0.2,0.1-0.4c0.1-0.3,0.3-0.5,0.6-0.6
			c0.1,0,0.2-0.1,0.2-0.1c0.1,0,0.1,0,0.2,0l0,0c0.4,0,0.7,0.2,0.9,0.6c0.1,0.2,0.1,0.3,0.1,0.5C48.3,46.3,47.8,46.8,47.2,46.8z
			 M47.6,43.4c-0.1,0-0.3,0-0.4,0c-0.3,0-0.5,0-0.8,0.1l-5.1-7.4l13.2-7.7l0.1,0.1L47.6,43.4z M56.5,27.6c-0.1,0-0.1,0-0.2,0
			c-0.2,0-0.3,0-0.4-0.1c-0.2-0.1-0.4-0.3-0.5-0.5s-0.1-0.3-0.1-0.5v-0.1c0.1-0.6,0.5-1,1.1-1s1.1,0.5,1.1,1.1
			C57.4,27.1,57,27.5,56.5,27.6z"/>
	</g>
	<g>
		<g>
			<path d="M35.4,68.7c-18.3,0-33.2-14.9-33.2-33.2S17.1,2.3,35.4,2.3s33.2,14.9,33.2,33.2C68.6,53.8,53.7,68.7,35.4,68.7z
				 M35.4,3.7C17.8,3.7,3.6,18,3.6,35.5c0,17.6,14.3,31.8,31.8,31.8C53,67.3,67.2,53,67.2,35.5C67.2,17.9,52.9,3.7,35.4,3.7z"/>
		</g>
	</g>
	<g>
		<g>
			<path d="M117.8,40L117.8,40l-5-16.4h-8.1c-0.5,0-0.9,0.3-1,0.8L99.4,40h-0.1l-5.4-16.4h-8.2c-0.2,0-0.4,0.2-0.3,0.5l9.1,24.6
				c0.3,0.7,0.9,1.2,1.7,1.2h7l4.9-17.7h0.1l5.1,16.5c0.2,0.7,0.9,1.2,1.6,1.2h6.8l9.4-26.3h-8.3L117.8,40z"/>
		</g>
		<g>
			<path d="M137,10.4c-1.3,0-2.4,0.5-3.4,1.4c-0.9,0.9-1.4,2-1.4,3.4c0,1.3,0.5,2.4,1.4,3.4c0.9,0.9,2,1.4,3.4,1.4
				c1.3,0,2.4-0.5,3.4-1.4c0.9-0.9,1.4-2,1.4-3.4c0-1.3-0.5-2.4-1.4-3.4C139.5,10.9,138.3,10.4,137,10.4z"/>
		</g>
		<g>
			<rect x="133.1" y="23.6" width="7.9" height="26.3"/>
		</g>
		<g>
			<path d="M157.9,29.7c0.8,0,1.6,0.2,2.3,0.6c0.5,0.3,0.9,0.6,1.2,0.9s0.7,0.3,1,0l4.9-5.1c-1.3-1.3-2.8-2.2-4.5-2.8
				c-1.7-0.5-3.4-0.8-4.9-0.8c-2,0-4,0.3-5.8,1s-3.4,1.6-4.7,2.8c-1.3,1.2-2.4,2.7-3.1,4.4c-0.8,1.7-1.1,3.6-1.1,5.7s0.4,4,1.1,5.7
				c0.8,1.7,1.8,3.2,3.1,4.4s2.9,2.2,4.7,2.8c1.8,0.7,3.7,1,5.8,1c1.6,0,3.2-0.3,4.9-0.8s3.2-1.4,4.5-2.8l-4.7-4.9
				c-0.4-0.4-1-0.4-1.5-0.1c-0.3,0.3-0.6,0.5-1,0.7c-0.7,0.4-1.4,0.6-2.3,0.6c-2.1,0-3.7-0.6-4.8-1.9c-1.1-1.2-1.7-2.9-1.7-4.9
				s0.6-3.6,1.7-4.9C154.2,30.3,155.8,29.7,157.9,29.7z"/>
		</g>
		<g>
			<path d="M216.2,26.6c-1.1-1.2-2.4-2.2-3.9-2.8c-1.5-0.7-3.3-1-5.2-1c-2,0-4,0.3-5.8,1s-3.4,1.6-4.7,2.8c-1.3,1.2-2.4,2.7-3.1,4.4
				c-0.8,1.7-1.1,3.6-1.1,5.7s0.4,4,1.1,5.7c0.8,1.7,1.8,3.2,3.1,4.4s2.9,2.2,4.7,2.8c1.8,0.7,3.7,1,5.8,1s4.2-0.5,6.2-1.4
				s3.7-2.2,5-3.9l-5.7-4.2c-0.7,0.9-1.5,1.7-2.4,2.3s-2.1,0.9-3.4,0.9c-1.6,0-2.9-0.5-4-1.4s-1.8-2.4-2.1-3.7H220v-2.6
				c0-2.1-0.5-4-1.1-5.7C218.3,29.3,217.3,27.9,216.2,26.6z M200.6,33.4c0-0.7,0.2-1.1,0.5-1.7c0.3-0.6,0.7-1,1.1-1.4
				c0.5-0.5,1.1-0.8,1.8-1.1c0.7-0.3,1.5-0.5,2.4-0.5c1.5,0,2.7,0.4,3.7,1.4c0.9,1,1.4,2.1,1.4,3.4L200.6,33.4L200.6,33.4z"/>
		</g>
		<g>
			<path d="M233,15.7h-7.9v7.9h-5.3v5.5c0,0.5,0.4,1,1,1h4.3v12.5c0,1.5,0.1,2.7,0.5,3.7c0.5,1,1,1.8,1.9,2.5
				c0.9,0.6,1.9,1.1,3.1,1.4s2.4,0.4,3.8,0.4c0.9,0,1.9-0.1,2.9-0.2s2.2-0.3,2.9-0.7v-6.8c0,0.3-1,0.5-1.7,0.6s-1.3,0.1-1.8,0.1
				c-0.9,0-1.6-0.1-2.1-0.4c-0.5-0.2-0.9-0.6-1.2-1s-0.4-1-0.5-1.6s-0.1-1.3-0.1-2v-8.5h7.2v-6.6h-7L233,15.7L233,15.7z"/>
		</g>
		<g>
			<polygon points="195.2,23.6 185.3,23.6 177.3,34.6 177.3,10.4 168.7,10.4 168.7,49.8 177.3,49.8 177.3,43.9 179.5,40.8 
				184.9,49.8 195,49.8 185.1,36 			"/>
		</g>
	</g>
</g>
<g>
	<path d="M92.9,65.5l-0.2,1.2h-2.6l-1.3,8.5h-1.3l1.3-8.5h-2.6l0.2-1.2H92.9z"/>
	<path d="M94.8,69.6c0.5-0.7,1.3-1.2,2.2-1.2c1.3,0,1.9,0.6,1.9,1.9c0,0.3,0,0.6-0.1,0.9l-0.5,3c0,0.2,0,0.4,0,0.5
		c0,0.3,0,0.5,0,0.5H97c0,0,0-0.2,0-0.4c0-0.2,0-0.4,0.1-0.6l0.4-2.7c0-0.2,0.1-0.5,0.1-0.7c0-0.7-0.3-1.1-1.1-1.1
		c-1.3,0-1.8,1.2-2,2.4L94,75.4h-1.3l1.4-8.7c0-0.2,0-0.4,0-0.5c0-0.3,0-0.5,0-0.5h1.3c0,0,0,0.2,0,0.4c0,0.2,0,0.4-0.1,0.6
		L94.8,69.6z"/>
	<path d="M103.1,72.3c-0.5,0-1,0-1.6-0.1c0,0,0,0.1,0,0.3c0,1.1,0.7,1.8,1.8,1.8c0.9,0,1.6-0.3,2.3-0.8l0.4,0.8
		c-0.8,0.7-1.9,1.1-3,1.1c-1.7,0-2.8-1.1-2.8-2.8c0-2.2,1.8-4.2,4.2-4.2c1.4,0,2.3,0.7,2.3,1.8C106.7,70.7,106.2,72.3,103.1,72.3z
		 M104.2,69.4c-1.2,0-2.2,0.8-2.6,1.9c0.3,0.1,0.7,0.1,1.1,0.1c1.3,0,2.6-0.3,2.6-1.2C105.4,69.8,105,69.4,104.2,69.4z"/>
	<path d="M120.9,68.5l-3.2,6.7h-1.2l-0.9-4.9l-2.5,4.9H112l-1.1-6.7h1.3l0.7,5l2.5-5h1l0.9,5l2.3-5H120.9z"/>
	<path d="M123.9,75.3c-1.7,0-2.9-1.1-2.9-2.8c0-2.2,1.7-4.1,4-4.1c1.7,0,2.9,1.1,2.9,2.8C127.9,73.5,126.2,75.3,123.9,75.3z
		 M124.8,69.5c-1.5,0-2.5,1.4-2.5,2.8c0,1.1,0.6,1.9,1.7,1.9c1.5,0,2.5-1.4,2.5-2.8C126.6,70.3,125.9,69.5,124.8,69.5z"/>
	<path d="M133.3,69.8L133.3,69.8c-0.3-0.1-0.5-0.1-0.7-0.1c-1.1,0-1.6,1.3-1.8,2.2l-0.5,3.3H129l0.9-5.7c0-0.2,0-0.4,0-0.5
		c0-0.3,0-0.5,0-0.5h1.3c0,0,0,0.2,0,0.4c0,0.2,0,0.4-0.1,0.6l0,0c0.4-0.7,1-1.1,1.8-1.1c0.2,0,0.5,0,0.7,0.1L133.3,69.8z"/>
	<path d="M135.1,74.7c0,0.3,0,0.5,0,0.5h-1.3c0,0,0-0.2,0-0.4c0-0.2,0-0.4,0.1-0.6l1.2-7.6c0-0.2,0-0.4,0-0.5c0-0.3,0-0.5,0-0.5h1.3
		c0,0,0,0.2,0,0.4c0,0.2,0,0.4-0.1,0.6l-1.2,7.6C135.1,74.4,135.1,74.6,135.1,74.7z"/>
	<path d="M142,74.1c-0.6,0.8-1.5,1.2-2.4,1.2c-1.7,0-2.6-1.2-2.6-2.8c0-2.1,1.4-4.2,3.7-4.2c0.9,0,1.7,0.4,2.1,1.2l0.5-3
		c0-0.2,0-0.4,0-0.5c0-0.3,0-0.5,0-0.5h1.3c0,0,0,0.2,0,0.4c0,0.2,0,0.4-0.1,0.6l-1.2,7.6c0,0.2,0,0.4,0,0.5c0,0.3,0,0.5,0,0.5H142
		c0,0,0-0.2,0-0.4C142,74.6,142,74.4,142,74.1L142,74.1z M140.8,69.5c-1.5,0-2.4,1.4-2.4,2.8c0,1.1,0.6,1.8,1.7,1.8
		c1.5,0,2.4-1.4,2.4-2.8C142.5,70.3,141.9,69.5,140.8,69.5z"/>
	<path d="M148.1,65.5l-0.6,3h-1l0.3-3H148.1z"/>
	<path d="M153,70.1c-0.4-0.4-0.9-0.7-1.4-0.7c-0.6,0-1.2,0.3-1.2,0.9c0,1.1,2.9,0.7,2.9,2.6c0,1.5-1.3,2.4-2.8,2.4
		c-0.9,0-1.8-0.4-2.3-1.2l0.7-0.8c0.4,0.6,1.1,0.9,1.8,0.9c0.6,0,1.4-0.3,1.4-1.1c0-1.2-2.9-0.8-2.9-2.6c0-1.3,1.1-2.2,2.5-2.2
		c0.9,0,1.5,0.3,2.1,0.9L153,70.1z"/>
	<path d="M158.5,69.6h-0.9l0.2-1.1h0.9c0.2-1.5,0.6-3.2,2.5-3.2c0.3,0,0.8,0,1.1,0.2l-0.2,1c-0.2-0.1-0.5-0.1-0.7-0.1
		c-1.2,0-1.2,1.3-1.3,2.1h1.5l-0.2,1.1h-1.5l-1.1,7.1c-0.1,0.7-0.3,1.1-0.3,1.1H157c0,0,0.2-0.4,0.3-1L158.5,69.6z M162.7,74.7
		c0,0.3,0,0.5,0,0.5h-1.3c0,0,0-0.2,0-0.4c0-0.2,0-0.4,0.1-0.6l0.7-4.6c0-0.2,0-0.4,0-0.5c0-0.3,0-0.5,0-0.5h1.3c0,0,0,0.2,0,0.4
		c0,0.2,0,0.4-0.1,0.6l-0.7,4.6C162.7,74.4,162.7,74.6,162.7,74.7z M163.2,67.2c-0.4,0-0.7-0.3-0.7-0.7c0-0.5,0.5-1,1-1
		c0.4,0,0.7,0.3,0.7,0.7C164.2,66.8,163.7,67.2,163.2,67.2z"/>
	<path d="M169,69.8L169,69.8c-0.3-0.1-0.5-0.1-0.7-0.1c-1.1,0-1.6,1.3-1.8,2.2l-0.5,3.3h-1.3l0.9-5.7c0-0.2,0-0.4,0-0.5
		c0-0.3,0-0.5,0-0.5h1.3c0,0,0,0.2,0,0.4c0,0.2,0,0.4-0.1,0.6l0,0c0.4-0.7,1-1.1,1.8-1.1c0.2,0,0.5,0,0.7,0.1L169,69.8z"/>
	<path d="M173.7,70.1c-0.4-0.4-0.9-0.7-1.4-0.7c-0.6,0-1.2,0.3-1.2,0.9c0,1.1,2.9,0.7,2.9,2.6c0,1.5-1.3,2.4-2.8,2.4
		c-0.9,0-1.8-0.4-2.3-1.2l0.7-0.8c0.4,0.6,1.1,0.9,1.8,0.9c0.6,0,1.4-0.3,1.4-1.1c0-1.2-2.9-0.8-2.9-2.6c0-1.3,1.1-2.2,2.5-2.2
		c0.9,0,1.5,0.3,2.1,0.9L173.7,70.1z"/>
	<path d="M177.9,68.5h1.5l-0.2,1.1h-1.5c-0.2,1.1-0.6,2.7-0.6,3.8c0,0.5,0.1,0.7,0.6,0.7c0.2,0,0.6-0.1,0.8-0.2l-0.1,1.1
		c-0.4,0.1-0.8,0.2-1.2,0.2c-1,0-1.4-0.5-1.4-1.4c0-1.4,0.4-3,0.6-4.3h-0.9l0.2-1.1h0.9l0.2-1c0-0.2,0-0.4,0-0.5c0-0.3,0-0.5,0-0.5
		h1.3c0,0,0,0.2,0,0.4c0,0.2,0,0.4-0.1,0.6L177.9,68.5z"/>
	<path d="M96.4,92.2H95l-0.6-7.6l0,0l-3,7.7h-0.8l-3-7.7l0,0L87,92.2h-1.3l0.9-9.7h1.7l2.8,7.5l0,0l2.8-7.5h1.7L96.4,92.2z"/>
	<path d="M104.2,89.2h-5.1c0.1,1.3,0.9,2.1,2.1,2.1s2-0.7,2.2-0.8l0.6,0.8c-0.1,0.1-0.9,1.1-2.9,1.1s-3.3-1.4-3.3-3.5
		s1.5-3.4,3.4-3.4s3.2,1.3,3.2,3.2C104.2,88.8,104.2,89.2,104.2,89.2z M103,88.3c0-0.7-0.6-1.9-1.9-1.9s-1.9,1.1-2,1.9H103z"/>
	<path d="M115.4,92.2h-1.3v-3.9c0-0.8-0.1-1.8-1.2-1.8s-1.6,1-1.6,2.2v3.5H110v-3.9c0-1-0.2-1.8-1.2-1.8c-1.1,0-1.6,1-1.6,2.2v3.5
		h-1.3v-6.7h1.3v1.1l0,0c0.3-0.6,1-1.2,1.9-1.2c1,0,1.7,0.4,2,1.3c0.4-0.8,1.2-1.3,2.1-1.3c1.8,0,2.3,1.3,2.3,2.7L115.4,92.2
		L115.4,92.2z"/>
	<path d="M121,92.3c-1,0-1.8-0.4-2.3-1.2l0,0v1.1h-1.3v-9.7h1.3v4l0,0c0.5-0.7,1.3-1.2,2.3-1.2c1.9,0,3.2,1.5,3.2,3.4
		C124.3,90.8,123,92.3,121,92.3z M120.8,86.5c-1.3,0-2.1,1-2.1,2.3s0.8,2.4,2.1,2.4s2.1-1,2.1-2.4S122.1,86.5,120.8,86.5z"/>
	<path d="M131.9,89.2h-5.1c0.1,1.3,0.9,2.1,2.1,2.1s2-0.7,2.2-0.8l0.6,0.8c-0.1,0.1-0.9,1.1-2.9,1.1s-3.3-1.4-3.3-3.5
		s1.5-3.4,3.4-3.4s3.2,1.3,3.2,3.2C132,88.8,131.9,89.2,131.9,89.2z M130.7,88.3c0-0.7-0.6-1.9-1.9-1.9c-1.3,0-1.9,1.1-2,1.9H130.7z
		"/>
	<path d="M137.1,86.8L137.1,86.8c-0.2-0.1-0.4-0.1-0.8-0.1c-0.6,0-1,0.4-1.1,0.6s-0.4,0.7-0.4,1.7v3.3h-1.3v-6.7h1.3v1l0,0
		c0.3-0.8,0.9-1.1,1.6-1.1c0.4,0,0.7,0.1,0.7,0.1V86.8z"/>
	<path d="M148.1,90.9c-0.7,0.6-1.9,1.3-3.6,1.3h-2.9v-9.7h2.9c1.7,0,2.9,0.6,3.6,1.3c0.7,0.6,1.5,1.8,1.5,3.6
		C149.6,89.2,148.8,90.3,148.1,90.9z M147,84.6c-0.5-0.5-1.4-0.9-2.6-0.9h-1.6V91h1.6c1.2,0,2-0.4,2.6-0.9s1.1-1.4,1.1-2.8
		C148.2,86,147.6,85.1,147,84.6z"/>
	<path d="M156.3,92.2H155v-0.8c-0.3,0.3-0.9,1-2.1,1c-1.2,0-2.3-0.8-2.3-2.1s1.1-2,2.6-2l1.8-0.1v-0.3c0-1-0.7-1.5-1.7-1.5
		s-1.8,0.4-2,0.6l-0.4-0.9c0.5-0.3,1.4-0.7,2.5-0.7s1.8,0.3,2.2,0.8s0.7,1,0.7,2.2V92.2z M155,89l-1.6,0.1c-1.1,0.1-1.5,0.5-1.5,1.1
		s0.5,1.1,1.4,1.1s1.4-0.6,1.7-1L155,89L155,89z"/>
	<path d="M161.4,92.1c0,0-0.5,0.2-1.2,0.2s-1.1-0.3-1.4-0.7s-0.3-0.9-0.3-2v-3h-1v-1.1h1v-2h1.3v2h1.6v1.1h-1.6v3
		c0,0.6,0,0.9,0.2,1.2c0.1,0.2,0.3,0.3,0.7,0.3s0.7-0.2,0.7-0.2V92.1z"/>
	<path d="M168,92.2h-1.3v-0.8c-0.3,0.3-0.9,1-2.1,1c-1.2,0-2.3-0.8-2.3-2.1s1.1-2,2.6-2l1.8-0.1v-0.3c0-1-0.7-1.5-1.7-1.5
		s-1.8,0.4-2,0.6l-0.4-0.9c0.5-0.3,1.4-0.7,2.5-0.7s1.8,0.3,2.2,0.8s0.7,1,0.7,2.2V92.2z M166.6,89l-1.6,0.1
		c-1.1,0.1-1.5,0.5-1.5,1.1s0.5,1.1,1.4,1.1s1.4-0.6,1.7-1L166.6,89L166.6,89z"/>
	<path d="M178.1,87.4c-0.6,0.5-1.4,0.7-2.3,0.7h-1.4v4.1H173v-9.7h2.7c0.9,0,1.8,0.2,2.3,0.7c0.6,0.5,0.9,1.1,0.9,2.1
		C179,86.2,178.7,86.9,178.1,87.4z M177,84c-0.4-0.3-0.8-0.4-1.4-0.4h-1.2v3.3h1.2c0.6,0,1.1-0.1,1.4-0.4c0.3-0.3,0.6-0.7,0.6-1.3
		C177.6,84.7,177.4,84.2,177,84z"/>
	<path d="M181.7,92.2h-1.3v-9.7h1.3V92.2z"/>
	<path d="M189,92.2h-1.3v-0.8c-0.3,0.3-0.9,1-2.1,1c-1.2,0-2.3-0.8-2.3-2.1s1.1-2,2.6-2l1.8-0.1v-0.3c0-1-0.7-1.5-1.7-1.5
		s-1.8,0.4-2,0.6l-0.4-0.9c0.5-0.3,1.4-0.7,2.5-0.7s1.8,0.3,2.2,0.8s0.7,1,0.7,2.2V92.2z M187.6,89l-1.6,0.1
		c-1.1,0.1-1.5,0.5-1.5,1.1s0.5,1.1,1.4,1.1s1.4-0.6,1.7-1L187.6,89L187.6,89z"/>
	<path d="M194,92.1c0,0-0.5,0.2-1.2,0.2s-1.1-0.3-1.4-0.7s-0.3-0.9-0.3-2v-3h-1v-1.1h1v-2h1.3v2h1.6v1.1h-1.6v3c0,0.6,0,0.9,0.2,1.2
		c0.1,0.2,0.3,0.3,0.7,0.3s0.7-0.2,0.7-0.2V92.1z"/>
	<path d="M198.9,83.5c0,0-0.4-0.1-0.8-0.1c-0.9,0-1,0.7-1,1.4v0.7h1.6v1.1h-1.6v5.6h-1.3v-5.6h-1v-1.1h1v-0.7c0-0.9,0.2-1.4,0.4-1.8
		c0.3-0.4,0.8-0.7,1.6-0.7s1.1,0.2,1.1,0.2V83.5z"/>
	<path d="M202.7,92.3c-2,0-3.5-1.4-3.5-3.5s1.5-3.5,3.5-3.5s3.5,1.4,3.5,3.5C206.3,91,204.7,92.3,202.7,92.3z M202.7,86.5
		c-1.3,0-2.2,1-2.2,2.3s0.8,2.4,2.2,2.4c1.3,0,2.2-1,2.2-2.4C204.9,87.5,204.1,86.5,202.7,86.5z"/>
	<path d="M211.4,86.8L211.4,86.8c-0.2-0.1-0.4-0.1-0.8-0.1c-0.6,0-1,0.4-1.1,0.6s-0.4,0.7-0.4,1.7v3.3h-1.3v-6.7h1.3v1l0,0
		c0.3-0.8,0.9-1.1,1.6-1.1c0.4,0,0.7,0.1,0.7,0.1V86.8z"/>
	<path d="M222.3,92.2H221v-3.9c0-0.8-0.1-1.8-1.2-1.8s-1.6,1-1.6,2.2v3.5h-1.3v-3.9c0-1-0.2-1.8-1.2-1.8c-1.1,0-1.6,1-1.6,2.2v3.5
		h-1.3v-6.7h1.3v1.1l0,0c0.3-0.6,1-1.2,1.9-1.2c1,0,1.7,0.4,2,1.3c0.4-0.8,1.2-1.3,2.1-1.3c1.8,0,2.3,1.3,2.3,2.7L222.3,92.2
		L222.3,92.2z"/>
</g>
</svg>
